<svg width="60.25in" height="48.125in" viewBox="0 0 60.25 48.125" xmlns="http://www.w3.org/2000/svg" version="1.1" preserveAspectRatio="xMidYMid meet"><g id="svgGroup" stroke-linecap="round" fill-rule="evenodd" font-size="9pt" stroke="#000" stroke-width="0.25mm" fill="none" style="stroke:#000;stroke-width:0.25mm;fill:none"><path d="M 0 24.125 L 0 25.625 L 0.236 25.625 L 0.236 26.995 L 0.604 26.995 L 0.604 26.901 L 0.807 26.901 L 0.807 26.995 L 1.01 26.995 L 1.01 27.255 L 0.807 27.255 L 0.807 27.349 L 0.604 27.349 L 0.604 27.255 L 0.236 27.255 L 0.236 28.625 L 0 28.625 L 0 31.625 L 0.236 31.625 L 0.236 32.995 L 0.604 32.995 L 0.604 32.901 L 0.807 32.901 L 0.807 32.995 L 1.01 32.995 L 1.01 33.255 L 0.807 33.255 L 0.807 33.349 L 0.604 33.349 L 0.604 33.255 L 0.236 33.255 L 0.236 34.625 L 0 34.625 L 0 37.625 L 0.236 37.625 L 0.236 38.995 L 0.604 38.995 L 0.604 38.901 L 0.807 38.901 L 0.807 38.995 L 1.01 38.995 L 1.01 39.255 L 0.807 39.255 L 0.807 39.349 L 0.604 39.349 L 0.604 39.255 L 0.236 39.255 L 0.236 40.625 L 0 40.625 L 0 43.625 L 0.236 43.625 L 0.236 44.995 L 0.604 44.995 L 0.604 44.901 L 0.807 44.901 L 0.807 44.995 L 1.01 44.995 L 1.01 45.255 L 0.807 45.255 L 0.807 45.349 L 0.604 45.349 L 0.604 45.255 L 0.236 45.255 L 0.236 46.625 L 0 46.625 L 0 48.125 L 1.125 48.125 L 1.125 47.889 L 2.12 47.889 L 2.12 47.521 L 2.026 47.521 L 2.026 47.318 L 2.12 47.318 L 2.12 47.115 L 2.38 47.115 L 2.38 47.318 L 2.474 47.318 L 2.474 47.521 L 2.38 47.521 L 2.38 47.889 L 3.375 47.889 L 3.375 48.125 L 5.625 48.125 L 5.625 47.889 L 6.62 47.889 L 6.62 47.521 L 6.526 47.521 L 6.526 47.318 L 6.62 47.318 L 6.62 47.115 L 6.88 47.115 L 6.88 47.318 L 6.974 47.318 L 6.974 47.521 L 6.88 47.521 L 6.88 47.889 L 7.875 47.889 L 7.875 48.125 L 10.125 48.125 L 10.125 47.889 L 11.12 47.889 L 11.12 47.521 L 11.026 47.521 L 11.026 47.318 L 11.12 47.318 L 11.12 47.115 L 11.38 47.115 L 11.38 47.318 L 11.474 47.318 L 11.474 47.521 L 11.38 47.521 L 11.38 47.889 L 12.375 47.889 L 12.375 48.125 L 14.625 48.125 L 14.625 47.889 L 15.62 47.889 L 15.62 47.521 L 15.526 47.521 L 15.526 47.318 L 15.62 47.318 L 15.62 47.115 L 15.88 47.115 L 15.88 47.318 L 15.974 47.318 L 15.974 47.521 L 15.88 47.521 L 15.88 47.889 L 16.875 47.889 L 16.875 48.125 L 18 48.125 L 18 46.625 L 17.764 46.625 L 17.764 45.255 L 17.396 45.255 L 17.396 45.349 L 17.193 45.349 L 17.193 45.255 L 16.99 45.255 L 16.99 44.995 L 17.193 44.995 L 17.193 44.901 L 17.396 44.901 L 17.396 44.995 L 17.764 44.995 L 17.764 43.625 L 18 43.625 L 18 40.625 L 17.764 40.625 L 17.764 39.255 L 17.396 39.255 L 17.396 39.349 L 17.193 39.349 L 17.193 39.255 L 16.99 39.255 L 16.99 38.995 L 17.193 38.995 L 17.193 38.901 L 17.396 38.901 L 17.396 38.995 L 17.764 38.995 L 17.764 37.625 L 18 37.625 L 18 34.625 L 17.764 34.625 L 17.764 33.255 L 17.396 33.255 L 17.396 33.349 L 17.193 33.349 L 17.193 33.255 L 16.99 33.255 L 16.99 32.995 L 17.193 32.995 L 17.193 32.901 L 17.396 32.901 L 17.396 32.995 L 17.764 32.995 L 17.764 31.625 L 18 31.625 L 18 28.625 L 17.764 28.625 L 17.764 27.255 L 17.396 27.255 L 17.396 27.349 L 17.193 27.349 L 17.193 27.255 L 16.99 27.255 L 16.99 26.995 L 17.193 26.995 L 17.193 26.901 L 17.396 26.901 L 17.396 26.995 L 17.764 26.995 L 17.764 25.625 L 18 25.625 L 18 24.125 L 0 24.125 Z" id="front_outsideCutPath" stroke="#FF0000" stroke-width="0.1" style="stroke:#FF0000;stroke-width:0.1" vector-effect="non-scaling-stroke"/><path d="M 11.624 37.485 L 11.332 37.485 L 11.332 36.238 Q 11.332 36.088 11.288 35.987 A 0.347 0.347 0 0 0 11.225 35.887 Q 11.138 35.793 10.971 35.775 A 0.774 0.774 0 0 0 10.889 35.771 Q 10.69 35.771 10.561 35.842 A 0.411 0.411 0 0 0 10.446 35.934 Q 10.317 36.084 10.306 36.411 A 1.869 1.869 0 0 0 10.305 36.474 L 10.305 37.485 L 10.013 37.485 L 10.013 35.558 L 10.251 35.558 L 10.298 35.822 L 10.312 35.822 Q 10.402 35.679 10.564 35.601 A 0.79 0.79 0 0 1 10.845 35.526 A 0.955 0.955 0 0 1 10.924 35.523 A 1.152 1.152 0 0 1 11.12 35.538 Q 11.326 35.574 11.448 35.691 A 0.506 0.506 0 0 1 11.571 35.884 Q 11.601 35.964 11.613 36.063 A 1.273 1.273 0 0 1 11.624 36.228 L 11.624 37.485 Z M 6.018 35.558 L 6.018 35.785 L 5.527 35.785 L 5.527 37.485 L 5.236 37.485 L 5.236 35.785 L 4.891 35.785 L 4.891 35.653 L 5.236 35.548 L 5.236 35.44 A 1.183 1.183 0 0 1 5.263 35.172 Q 5.367 34.73 5.856 34.73 A 0.94 0.94 0 0 1 5.989 34.74 Q 6.054 34.75 6.126 34.767 A 1.889 1.889 0 0 1 6.215 34.792 L 6.139 35.025 A 1.417 1.417 0 0 0 6.029 34.994 Q 5.973 34.981 5.924 34.976 A 0.628 0.628 0 0 0 5.851 34.971 Q 5.686 34.971 5.607 35.081 Q 5.535 35.18 5.528 35.389 A 1.378 1.378 0 0 0 5.527 35.433 L 5.527 35.558 L 6.018 35.558 Z M 13.109 37.244 L 13.109 37.467 A 0.287 0.287 0 0 1 13.075 37.481 Q 13.033 37.495 12.969 37.505 Q 12.883 37.519 12.813 37.52 A 0.747 0.747 0 0 1 12.803 37.52 A 0.762 0.762 0 0 1 12.578 37.49 Q 12.332 37.413 12.267 37.145 A 0.917 0.917 0 0 1 12.244 36.931 L 12.244 35.785 L 11.968 35.785 L 11.968 35.644 L 12.244 35.523 L 12.367 35.112 L 12.536 35.112 L 12.536 35.558 L 13.095 35.558 L 13.095 35.785 L 12.536 35.785 L 12.536 36.919 Q 12.536 37.041 12.577 37.123 A 0.283 0.283 0 0 0 12.618 37.186 A 0.271 0.271 0 0 0 12.785 37.275 A 0.39 0.39 0 0 0 12.845 37.279 Q 12.923 37.279 12.995 37.268 A 1.578 1.578 0 0 0 13.037 37.26 Q 13.077 37.253 13.105 37.245 A 0.434 0.434 0 0 0 13.109 37.244 Z M 7.479 35.544 L 7.438 35.815 Q 7.339 35.793 7.259 35.789 A 0.684 0.684 0 0 0 7.227 35.788 A 0.506 0.506 0 0 0 6.854 35.95 A 0.692 0.692 0 0 0 6.827 35.978 A 0.666 0.666 0 0 0 6.667 36.352 A 0.886 0.886 0 0 0 6.661 36.451 L 6.661 37.485 L 6.369 37.485 L 6.369 35.558 L 6.61 35.558 L 6.644 35.915 L 6.658 35.915 Q 6.765 35.727 6.916 35.625 A 0.582 0.582 0 0 1 7.248 35.523 A 1.34 1.34 0 0 1 7.368 35.528 A 0.978 0.978 0 0 1 7.479 35.544 Z M 9.475 36.813 A 1.507 1.507 0 0 0 9.502 36.52 A 1.713 1.713 0 0 0 9.501 36.473 Q 9.49 36.047 9.264 35.792 A 0.764 0.764 0 0 0 8.909 35.563 A 0.981 0.981 0 0 0 8.621 35.523 A 1.133 1.133 0 0 0 8.418 35.54 A 0.772 0.772 0 0 0 7.967 35.786 A 0.806 0.806 0 0 0 7.868 35.923 Q 7.732 36.161 7.732 36.52 Q 7.732 36.824 7.841 37.05 A 0.959 0.959 0 0 0 7.862 37.092 A 0.79 0.79 0 0 0 8.15 37.398 A 0.812 0.812 0 0 0 8.337 37.481 A 0.937 0.937 0 0 0 8.609 37.52 Q 9.027 37.52 9.265 37.255 A 0.814 0.814 0 0 0 9.361 37.122 Q 9.441 36.987 9.475 36.813 Z M 8.034 36.52 A 1.478 1.478 0 0 0 8.048 36.731 Q 8.08 36.948 8.182 37.082 A 0.478 0.478 0 0 0 8.493 37.266 A 0.725 0.725 0 0 0 8.616 37.275 A 0.678 0.678 0 0 0 8.795 37.253 A 0.472 0.472 0 0 0 9.051 37.083 A 0.626 0.626 0 0 0 9.149 36.893 Q 9.177 36.805 9.19 36.698 A 1.537 1.537 0 0 0 9.2 36.52 A 1.456 1.456 0 0 0 9.186 36.312 Q 9.154 36.094 9.051 35.961 Q 8.902 35.771 8.612 35.771 A 0.694 0.694 0 0 0 8.44 35.791 A 0.465 0.465 0 0 0 8.18 35.959 Q 8.075 36.094 8.046 36.325 A 1.542 1.542 0 0 0 8.034 36.52 Z" id="front_labelLayer" stroke="#777777" fill="#777777" style="stroke:#777777;fill:#777777" vector-effect="non-scaling-stroke"/><path d="M 18.361 24.125 L 18.361 25.625 L 18.125 25.625 L 18.125 26.995 L 18.385 26.995 L 18.385 27.125 L 18.385 27.255 L 18.125 27.255 L 18.125 28.625 L 18.361 28.625 L 18.361 31.625 L 18.125 31.625 L 18.125 32.995 L 18.385 32.995 L 18.385 33.125 L 18.385 33.255 L 18.125 33.255 L 18.125 34.625 L 18.361 34.625 L 18.361 37.625 L 18.125 37.625 L 18.125 38.995 L 18.385 38.995 L 18.385 39.125 L 18.385 39.255 L 18.125 39.255 L 18.125 40.625 L 18.361 40.625 L 18.361 43.625 L 18.125 43.625 L 18.125 44.995 L 18.385 44.995 L 18.385 45.125 L 18.385 45.255 L 18.125 45.255 L 18.125 46.625 L 18.361 46.625 L 18.361 48.125 L 19.625 48.125 L 19.625 47.889 L 20.995 47.889 L 20.995 47.521 L 20.901 47.521 L 20.901 47.318 L 20.995 47.318 L 20.995 47.115 L 21.255 47.115 L 21.255 47.318 L 21.349 47.318 L 21.349 47.521 L 21.255 47.521 L 21.255 47.889 L 22.625 47.889 L 22.625 48.125 L 25.625 48.125 L 25.625 47.889 L 26.995 47.889 L 26.995 47.521 L 26.901 47.521 L 26.901 47.318 L 26.995 47.318 L 26.995 47.115 L 27.255 47.115 L 27.255 47.318 L 27.349 47.318 L 27.349 47.521 L 27.255 47.521 L 27.255 47.889 L 28.625 47.889 L 28.625 48.125 L 31.625 48.125 L 31.625 47.889 L 32.995 47.889 L 32.995 47.521 L 32.901 47.521 L 32.901 47.318 L 32.995 47.318 L 32.995 47.115 L 33.255 47.115 L 33.255 47.318 L 33.349 47.318 L 33.349 47.521 L 33.255 47.521 L 33.255 47.889 L 34.625 47.889 L 34.625 48.125 L 37.625 48.125 L 37.625 47.889 L 38.995 47.889 L 38.995 47.521 L 38.901 47.521 L 38.901 47.318 L 38.995 47.318 L 38.995 47.115 L 39.255 47.115 L 39.255 47.318 L 39.349 47.318 L 39.349 47.521 L 39.255 47.521 L 39.255 47.889 L 40.625 47.889 L 40.625 48.125 L 41.889 48.125 L 41.889 46.625 L 42.125 46.625 L 42.125 45.255 L 41.865 45.255 L 41.865 45.125 L 41.865 44.995 L 42.125 44.995 L 42.125 43.625 L 41.889 43.625 L 41.889 40.625 L 42.125 40.625 L 42.125 39.255 L 41.865 39.255 L 41.865 39.125 L 41.865 38.995 L 42.125 38.995 L 42.125 37.625 L 41.889 37.625 L 41.889 34.625 L 42.125 34.625 L 42.125 33.255 L 41.865 33.255 L 41.865 33.125 L 41.865 32.995 L 42.125 32.995 L 42.125 31.625 L 41.889 31.625 L 41.889 28.625 L 42.125 28.625 L 42.125 27.255 L 41.865 27.255 L 41.865 27.125 L 41.865 26.995 L 42.125 26.995 L 42.125 25.625 L 41.889 25.625 L 41.889 24.125 L 18.361 24.125 Z" id="left_outsideCutPath" stroke="#FF0000" stroke-width="0.1" style="stroke:#FF0000;stroke-width:0.1" vector-effect="non-scaling-stroke"/><path d="M 31.832 35.369 L 31.832 35.671 L 31.179 35.671 L 31.179 37.938 L 30.789 37.938 L 30.789 35.671 L 30.33 35.671 L 30.33 35.496 L 30.789 35.355 L 30.789 35.212 A 1.577 1.577 0 0 1 30.826 34.855 Q 30.94 34.367 31.406 34.283 A 1.183 1.183 0 0 1 31.617 34.265 Q 31.775 34.265 31.976 34.315 A 2.518 2.518 0 0 1 32.095 34.347 L 31.994 34.659 Q 31.769 34.586 31.61 34.586 A 0.525 0.525 0 0 0 31.483 34.601 A 0.337 0.337 0 0 0 31.284 34.733 Q 31.188 34.866 31.179 35.144 A 1.836 1.836 0 0 0 31.179 35.203 L 31.179 35.369 L 31.832 35.369 Z M 30.011 36.478 L 30.011 36.724 L 28.242 36.724 A 1.562 1.562 0 0 0 28.269 36.985 Q 28.297 37.128 28.354 37.24 A 0.73 0.73 0 0 0 28.47 37.41 Q 28.687 37.645 29.081 37.645 A 2.055 2.055 0 0 0 29.85 37.492 A 2.356 2.356 0 0 0 29.901 37.471 L 29.901 37.818 A 2.336 2.336 0 0 1 29.688 37.899 A 1.786 1.786 0 0 1 29.511 37.946 A 1.633 1.633 0 0 1 29.349 37.971 Q 29.269 37.98 29.179 37.983 A 3.17 3.17 0 0 1 29.067 37.985 A 1.512 1.512 0 0 1 28.688 37.94 A 1.071 1.071 0 0 1 28.168 37.638 Q 27.858 37.311 27.84 36.745 A 2.222 2.222 0 0 1 27.839 36.675 A 2.043 2.043 0 0 1 27.876 36.269 Q 27.926 36.023 28.042 35.832 A 1.152 1.152 0 0 1 28.145 35.688 A 0.997 0.997 0 0 1 28.871 35.325 A 1.375 1.375 0 0 1 28.966 35.322 A 1.185 1.185 0 0 1 29.3 35.367 A 0.902 0.902 0 0 1 29.73 35.64 Q 30.011 35.957 30.011 36.478 Z M 33.482 37.617 L 33.482 37.914 A 0.383 0.383 0 0 1 33.437 37.932 Q 33.381 37.951 33.296 37.965 Q 33.181 37.983 33.088 37.985 A 1 1 0 0 1 33.075 37.985 A 1.016 1.016 0 0 1 32.775 37.944 Q 32.329 37.807 32.329 37.2 L 32.329 35.671 L 31.961 35.671 L 31.961 35.484 L 32.329 35.322 L 32.493 34.774 L 32.718 34.774 L 32.718 35.369 L 33.464 35.369 L 33.464 35.671 L 32.718 35.671 L 32.718 37.183 A 0.783 0.783 0 0 0 32.73 37.321 Q 32.743 37.396 32.773 37.456 A 0.377 0.377 0 0 0 32.829 37.539 A 0.361 0.361 0 0 0 33.051 37.658 A 0.52 0.52 0 0 0 33.131 37.664 Q 33.234 37.664 33.33 37.648 A 2.105 2.105 0 0 0 33.386 37.639 Q 33.444 37.628 33.482 37.617 Z M 27.157 34.291 L 27.157 37.938 L 26.768 37.938 L 26.768 34.291 L 27.157 34.291 Z M 28.251 36.407 L 29.594 36.407 A 1.326 1.326 0 0 0 29.578 36.194 Q 29.543 35.978 29.43 35.844 A 0.533 0.533 0 0 0 29.109 35.661 A 0.8 0.8 0 0 0 28.961 35.648 A 0.767 0.767 0 0 0 28.74 35.678 A 0.593 0.593 0 0 0 28.468 35.85 Q 28.284 36.051 28.251 36.407 Z" id="left_labelLayer" stroke="#777777" fill="#777777" style="stroke:#777777;fill:#777777" vector-effect="non-scaling-stroke"/><path d="M 0 0 L 0 1.5 L 0.236 1.5 L 0.236 2.87 L 0.604 2.87 L 0.604 2.776 L 0.807 2.776 L 0.807 2.87 L 1.01 2.87 L 1.01 3.13 L 0.807 3.13 L 0.807 3.224 L 0.604 3.224 L 0.604 3.13 L 0.236 3.13 L 0.236 4.5 L 0 4.5 L 0 7.5 L 0.236 7.5 L 0.236 8.87 L 0.604 8.87 L 0.604 8.776 L 0.807 8.776 L 0.807 8.87 L 1.01 8.87 L 1.01 9.13 L 0.807 9.13 L 0.807 9.224 L 0.604 9.224 L 0.604 9.13 L 0.236 9.13 L 0.236 10.5 L 0 10.5 L 0 13.5 L 0.236 13.5 L 0.236 14.87 L 0.604 14.87 L 0.604 14.776 L 0.807 14.776 L 0.807 14.87 L 1.01 14.87 L 1.01 15.13 L 0.807 15.13 L 0.807 15.224 L 0.604 15.224 L 0.604 15.13 L 0.236 15.13 L 0.236 16.5 L 0 16.5 L 0 19.5 L 0.236 19.5 L 0.236 20.87 L 0.604 20.87 L 0.604 20.776 L 0.807 20.776 L 0.807 20.87 L 1.01 20.87 L 1.01 21.13 L 0.807 21.13 L 0.807 21.224 L 0.604 21.224 L 0.604 21.13 L 0.236 21.13 L 0.236 22.5 L 0 22.5 L 0 24 L 1.125 24 L 1.125 23.764 L 2.12 23.764 L 2.12 23.396 L 2.026 23.396 L 2.026 23.193 L 2.12 23.193 L 2.12 22.99 L 2.38 22.99 L 2.38 23.193 L 2.474 23.193 L 2.474 23.396 L 2.38 23.396 L 2.38 23.764 L 3.375 23.764 L 3.375 24 L 5.625 24 L 5.625 23.764 L 6.62 23.764 L 6.62 23.396 L 6.526 23.396 L 6.526 23.193 L 6.62 23.193 L 6.62 22.99 L 6.88 22.99 L 6.88 23.193 L 6.974 23.193 L 6.974 23.396 L 6.88 23.396 L 6.88 23.764 L 7.875 23.764 L 7.875 24 L 10.125 24 L 10.125 23.764 L 11.12 23.764 L 11.12 23.396 L 11.026 23.396 L 11.026 23.193 L 11.12 23.193 L 11.12 22.99 L 11.38 22.99 L 11.38 23.193 L 11.474 23.193 L 11.474 23.396 L 11.38 23.396 L 11.38 23.764 L 12.375 23.764 L 12.375 24 L 14.625 24 L 14.625 23.764 L 15.62 23.764 L 15.62 23.396 L 15.526 23.396 L 15.526 23.193 L 15.62 23.193 L 15.62 22.99 L 15.88 22.99 L 15.88 23.193 L 15.974 23.193 L 15.974 23.396 L 15.88 23.396 L 15.88 23.764 L 16.875 23.764 L 16.875 24 L 18 24 L 18 22.5 L 17.764 22.5 L 17.764 21.13 L 17.396 21.13 L 17.396 21.224 L 17.193 21.224 L 17.193 21.13 L 16.99 21.13 L 16.99 20.87 L 17.193 20.87 L 17.193 20.776 L 17.396 20.776 L 17.396 20.87 L 17.764 20.87 L 17.764 19.5 L 18 19.5 L 18 16.5 L 17.764 16.5 L 17.764 15.13 L 17.396 15.13 L 17.396 15.224 L 17.193 15.224 L 17.193 15.13 L 16.99 15.13 L 16.99 14.87 L 17.193 14.87 L 17.193 14.776 L 17.396 14.776 L 17.396 14.87 L 17.764 14.87 L 17.764 13.5 L 18 13.5 L 18 10.5 L 17.764 10.5 L 17.764 9.13 L 17.396 9.13 L 17.396 9.224 L 17.193 9.224 L 17.193 9.13 L 16.99 9.13 L 16.99 8.87 L 17.193 8.87 L 17.193 8.776 L 17.396 8.776 L 17.396 8.87 L 17.764 8.87 L 17.764 7.5 L 18 7.5 L 18 4.5 L 17.764 4.5 L 17.764 3.13 L 17.396 3.13 L 17.396 3.224 L 17.193 3.224 L 17.193 3.13 L 16.99 3.13 L 16.99 2.87 L 17.193 2.87 L 17.193 2.776 L 17.396 2.776 L 17.396 2.87 L 17.764 2.87 L 17.764 1.5 L 18 1.5 L 18 0 L 0 0 Z" id="back_outsideCutPath" stroke="#FF0000" stroke-width="0.1" style="stroke:#FF0000;stroke-width:0.1" vector-effect="non-scaling-stroke"/><path d="M 11.464 12.364 L 11.479 12.364 A 1.727 1.727 0 0 1 11.521 12.306 Q 11.593 12.213 11.709 12.083 L 12.331 11.423 L 12.677 11.423 L 11.897 12.244 L 12.732 13.35 L 12.379 13.35 L 11.698 12.439 L 11.479 12.629 L 11.479 13.35 L 11.19 13.35 L 11.19 10.615 L 11.479 10.615 L 11.479 12.065 A 1.945 1.945 0 0 1 11.478 12.12 Q 11.475 12.212 11.464 12.364 Z M 5.56 13.102 L 5.539 13.102 L 5.477 13.35 L 5.268 13.35 L 5.268 10.615 L 5.56 10.615 L 5.56 11.279 A 6.084 6.084 0 0 1 5.557 11.485 Q 5.553 11.589 5.546 11.68 L 5.56 11.68 A 0.663 0.663 0 0 1 6.044 11.399 A 0.997 0.997 0 0 1 6.165 11.392 A 0.892 0.892 0 0 1 6.416 11.425 A 0.668 0.668 0 0 1 6.754 11.651 A 0.86 0.86 0 0 1 6.905 11.941 Q 6.964 12.133 6.964 12.385 A 1.711 1.711 0 0 1 6.942 12.673 Q 6.895 12.946 6.753 13.122 A 0.691 0.691 0 0 1 6.262 13.381 A 0.99 0.99 0 0 1 6.165 13.385 A 0.885 0.885 0 0 1 5.942 13.358 A 0.77 0.77 0 0 1 5.821 13.316 A 0.646 0.646 0 0 1 5.56 13.102 Z M 8.875 13.35 L 8.659 13.35 L 8.601 13.076 L 8.587 13.076 A 1.21 1.21 0 0 1 8.489 13.185 Q 8.394 13.279 8.3 13.321 A 0.673 0.673 0 0 1 8.161 13.365 Q 8.093 13.379 8.015 13.383 A 1.313 1.313 0 0 1 7.942 13.385 A 0.895 0.895 0 0 1 7.76 13.368 Q 7.599 13.334 7.493 13.237 Q 7.33 13.09 7.33 12.817 A 0.505 0.505 0 0 1 7.617 12.341 Q 7.848 12.218 8.263 12.206 L 8.59 12.195 L 8.59 12.076 A 0.838 0.838 0 0 0 8.582 11.954 Q 8.573 11.892 8.554 11.843 A 0.326 0.326 0 0 0 8.493 11.741 Q 8.415 11.654 8.263 11.637 A 0.721 0.721 0 0 0 8.181 11.633 A 0.95 0.95 0 0 0 7.962 11.66 Q 7.862 11.684 7.753 11.728 A 1.954 1.954 0 0 0 7.636 11.78 L 7.546 11.557 A 1.345 1.345 0 0 1 7.806 11.45 A 1.532 1.532 0 0 1 7.858 11.436 A 1.351 1.351 0 0 1 8.198 11.392 Q 8.414 11.392 8.56 11.452 A 0.497 0.497 0 0 1 8.709 11.545 A 0.462 0.462 0 0 1 8.828 11.729 Q 8.856 11.804 8.867 11.898 A 1.148 1.148 0 0 1 8.875 12.035 L 8.875 13.35 Z M 10.761 11.488 L 10.672 11.736 A 1.298 1.298 0 0 0 10.531 11.689 A 1.55 1.55 0 0 0 10.461 11.672 Q 10.363 11.65 10.285 11.647 A 0.647 0.647 0 0 0 10.259 11.647 Q 9.671 11.647 9.671 12.395 Q 9.671 12.629 9.733 12.79 A 0.605 0.605 0 0 0 9.815 12.94 A 0.463 0.463 0 0 0 10.115 13.12 A 0.706 0.706 0 0 0 10.239 13.13 A 1.221 1.221 0 0 0 10.576 13.081 A 1.508 1.508 0 0 0 10.733 13.027 L 10.733 13.285 A 0.83 0.83 0 0 1 10.53 13.357 Q 10.436 13.378 10.327 13.383 A 1.6 1.6 0 0 1 10.246 13.385 A 1.091 1.091 0 0 1 9.981 13.355 A 0.74 0.74 0 0 1 9.599 13.128 Q 9.4 12.905 9.373 12.523 A 1.764 1.764 0 0 1 9.369 12.399 Q 9.369 12.049 9.491 11.814 A 0.804 0.804 0 0 1 9.602 11.652 A 0.756 0.756 0 0 1 10.016 11.414 A 1.145 1.145 0 0 1 10.266 11.388 A 1.317 1.317 0 0 1 10.543 11.418 A 1.456 1.456 0 0 1 10.624 11.438 Q 10.706 11.46 10.76 11.488 A 0.45 0.45 0 0 1 10.761 11.488 Z M 6.122 11.636 Q 5.824 11.636 5.692 11.807 A 0.5 0.5 0 0 0 5.619 11.945 Q 5.571 12.082 5.562 12.29 A 2.248 2.248 0 0 0 5.56 12.385 A 1.929 1.929 0 0 0 5.57 12.584 Q 5.59 12.786 5.658 12.908 A 0.44 0.44 0 0 0 5.695 12.966 Q 5.831 13.141 6.129 13.141 A 0.582 0.582 0 0 0 6.295 13.119 A 0.42 0.42 0 0 0 6.53 12.945 Q 6.624 12.805 6.651 12.577 A 1.672 1.672 0 0 0 6.662 12.381 A 1.724 1.724 0 0 0 6.652 12.185 Q 6.627 11.97 6.544 11.84 A 0.484 0.484 0 0 0 6.53 11.821 Q 6.398 11.636 6.122 11.636 Z M 8.583 12.577 L 8.583 12.403 L 8.292 12.415 A 2.143 2.143 0 0 0 8.12 12.427 Q 7.952 12.447 7.846 12.494 A 0.448 0.448 0 0 0 7.79 12.523 A 0.311 0.311 0 0 0 7.641 12.749 A 0.461 0.461 0 0 0 7.636 12.821 A 0.417 0.417 0 0 0 7.646 12.917 Q 7.664 12.99 7.71 13.041 A 0.26 0.26 0 0 0 7.732 13.062 A 0.318 0.318 0 0 0 7.851 13.125 Q 7.898 13.139 7.954 13.143 A 0.656 0.656 0 0 0 8 13.144 A 0.803 0.803 0 0 0 8.173 13.127 Q 8.326 13.093 8.428 12.995 A 0.489 0.489 0 0 0 8.564 12.751 Q 8.583 12.672 8.583 12.579 A 0.906 0.906 0 0 0 8.583 12.577 Z" id="back_labelLayer" stroke="#777777" fill="#777777" style="stroke:#777777;fill:#777777" vector-effect="non-scaling-stroke"/><path d="M 18.361 0 L 18.361 1.5 L 18.125 1.5 L 18.125 2.87 L 18.385 2.87 L 18.385 3 L 18.385 3.13 L 18.125 3.13 L 18.125 4.5 L 18.361 4.5 L 18.361 7.5 L 18.125 7.5 L 18.125 8.87 L 18.385 8.87 L 18.385 9 L 18.385 9.13 L 18.125 9.13 L 18.125 10.5 L 18.361 10.5 L 18.361 13.5 L 18.125 13.5 L 18.125 14.87 L 18.385 14.87 L 18.385 15 L 18.385 15.13 L 18.125 15.13 L 18.125 16.5 L 18.361 16.5 L 18.361 19.5 L 18.125 19.5 L 18.125 20.87 L 18.385 20.87 L 18.385 21 L 18.385 21.13 L 18.125 21.13 L 18.125 22.5 L 18.361 22.5 L 18.361 24 L 19.625 24 L 19.625 23.764 L 20.995 23.764 L 20.995 23.396 L 20.901 23.396 L 20.901 23.193 L 20.995 23.193 L 20.995 22.99 L 21.255 22.99 L 21.255 23.193 L 21.349 23.193 L 21.349 23.396 L 21.255 23.396 L 21.255 23.764 L 22.625 23.764 L 22.625 24 L 25.625 24 L 25.625 23.764 L 26.995 23.764 L 26.995 23.396 L 26.901 23.396 L 26.901 23.193 L 26.995 23.193 L 26.995 22.99 L 27.255 22.99 L 27.255 23.193 L 27.349 23.193 L 27.349 23.396 L 27.255 23.396 L 27.255 23.764 L 28.625 23.764 L 28.625 24 L 31.625 24 L 31.625 23.764 L 32.995 23.764 L 32.995 23.396 L 32.901 23.396 L 32.901 23.193 L 32.995 23.193 L 32.995 22.99 L 33.255 22.99 L 33.255 23.193 L 33.349 23.193 L 33.349 23.396 L 33.255 23.396 L 33.255 23.764 L 34.625 23.764 L 34.625 24 L 37.625 24 L 37.625 23.764 L 38.995 23.764 L 38.995 23.396 L 38.901 23.396 L 38.901 23.193 L 38.995 23.193 L 38.995 22.99 L 39.255 22.99 L 39.255 23.193 L 39.349 23.193 L 39.349 23.396 L 39.255 23.396 L 39.255 23.764 L 40.625 23.764 L 40.625 24 L 41.889 24 L 41.889 22.5 L 42.125 22.5 L 42.125 21.13 L 41.865 21.13 L 41.865 21 L 41.865 20.87 L 42.125 20.87 L 42.125 19.5 L 41.889 19.5 L 41.889 16.5 L 42.125 16.5 L 42.125 15.13 L 41.865 15.13 L 41.865 15 L 41.865 14.87 L 42.125 14.87 L 42.125 13.5 L 41.889 13.5 L 41.889 10.5 L 42.125 10.5 L 42.125 9.13 L 41.865 9.13 L 41.865 9 L 41.865 8.87 L 42.125 8.87 L 42.125 7.5 L 41.889 7.5 L 41.889 4.5 L 42.125 4.5 L 42.125 3.13 L 41.865 3.13 L 41.865 3 L 41.865 2.87 L 42.125 2.87 L 42.125 1.5 L 41.889 1.5 L 41.889 0 L 18.361 0 Z" id="right_outsideCutPath" stroke="#FF0000" stroke-width="0.1" style="stroke:#FF0000;stroke-width:0.1" vector-effect="non-scaling-stroke"/><path d="M 33.11 13.247 L 32.721 13.247 L 32.721 11.585 A 1.1 1.1 0 0 0 32.708 11.413 Q 32.694 11.322 32.663 11.25 A 0.463 0.463 0 0 0 32.578 11.116 A 0.439 0.439 0 0 0 32.398 11.002 Q 32.327 10.977 32.24 10.967 A 1.031 1.031 0 0 0 32.13 10.962 Q 31.725 10.962 31.538 11.182 A 0.647 0.647 0 0 0 31.428 11.377 Q 31.352 11.583 31.352 11.904 L 31.352 13.247 L 30.963 13.247 L 30.963 9.6 L 31.352 9.6 L 31.352 10.704 Q 31.352 10.847 31.342 10.955 A 1.522 1.522 0 0 1 31.333 11.034 L 31.357 11.034 Q 31.471 10.849 31.684 10.743 A 0.999 0.999 0 0 1 32.011 10.645 A 1.263 1.263 0 0 1 32.168 10.636 Q 32.639 10.636 32.874 10.86 A 0.677 0.677 0 0 1 33.041 11.122 Q 33.081 11.231 33.098 11.367 A 1.682 1.682 0 0 1 33.11 11.571 L 33.11 13.247 Z M 29.547 10.678 L 30.436 10.678 L 30.436 10.924 L 29.96 10.98 Q 30.015 11.05 30.06 11.154 A 1.199 1.199 0 0 1 30.077 11.195 A 0.749 0.749 0 0 1 30.121 11.374 A 0.961 0.961 0 0 1 30.129 11.494 A 0.892 0.892 0 0 1 30.088 11.77 A 0.721 0.721 0 0 1 29.871 12.096 Q 29.638 12.299 29.25 12.319 A 1.69 1.69 0 0 1 29.163 12.321 A 1.25 1.25 0 0 1 29.018 12.313 A 1.056 1.056 0 0 1 28.947 12.302 A 0.692 0.692 0 0 0 28.836 12.375 Q 28.778 12.421 28.745 12.474 A 0.293 0.293 0 0 0 28.699 12.633 Q 28.699 12.735 28.78 12.786 A 0.216 0.216 0 0 0 28.786 12.789 Q 28.855 12.829 29.006 12.837 A 1.48 1.48 0 0 0 29.083 12.839 L 29.538 12.839 A 1.593 1.593 0 0 1 29.78 12.856 Q 29.906 12.876 30.008 12.917 A 0.703 0.703 0 0 1 30.179 13.015 A 0.569 0.569 0 0 1 30.39 13.377 A 0.855 0.855 0 0 1 30.403 13.526 A 0.842 0.842 0 0 1 30.355 13.817 Q 30.277 14.029 30.074 14.167 A 0.925 0.925 0 0 1 30.061 14.176 A 1.167 1.167 0 0 1 29.76 14.313 Q 29.472 14.4 29.062 14.4 A 2.18 2.18 0 0 1 28.77 14.382 Q 28.621 14.362 28.5 14.319 A 0.904 0.904 0 0 1 28.285 14.212 Q 28.012 14.025 28.012 13.683 A 0.595 0.595 0 0 1 28.162 13.277 A 0.679 0.679 0 0 1 28.395 13.107 A 0.963 0.963 0 0 1 28.584 13.045 A 0.404 0.404 0 0 1 28.427 12.919 A 0.479 0.479 0 0 1 28.419 12.907 A 0.361 0.361 0 0 1 28.353 12.712 A 0.447 0.447 0 0 1 28.352 12.689 A 0.445 0.445 0 0 1 28.374 12.546 A 0.394 0.394 0 0 1 28.427 12.443 A 0.557 0.557 0 0 1 28.5 12.36 Q 28.566 12.298 28.664 12.239 A 0.682 0.682 0 0 1 28.367 12.002 A 0.845 0.845 0 0 1 28.339 11.96 A 0.804 0.804 0 0 1 28.216 11.573 A 0.982 0.982 0 0 1 28.214 11.51 A 1.124 1.124 0 0 1 28.243 11.244 A 0.74 0.74 0 0 1 28.467 10.86 A 0.826 0.826 0 0 1 28.784 10.685 Q 28.959 10.631 29.184 10.631 A 1.491 1.491 0 0 1 29.381 10.644 A 1.136 1.136 0 0 1 29.547 10.678 Z M 35.09 12.926 L 35.09 13.223 A 0.383 0.383 0 0 1 35.045 13.241 Q 34.989 13.26 34.904 13.274 Q 34.789 13.292 34.696 13.294 A 1 1 0 0 1 34.682 13.294 A 1.016 1.016 0 0 1 34.383 13.253 Q 33.937 13.116 33.937 12.509 L 33.937 10.98 L 33.569 10.98 L 33.569 10.793 L 33.937 10.631 L 34.101 10.083 L 34.326 10.083 L 34.326 10.678 L 35.071 10.678 L 35.071 10.98 L 34.326 10.98 L 34.326 12.492 A 0.783 0.783 0 0 0 34.337 12.63 Q 34.351 12.705 34.381 12.765 A 0.377 0.377 0 0 0 34.436 12.848 A 0.361 0.361 0 0 0 34.659 12.967 A 0.52 0.52 0 0 0 34.739 12.973 Q 34.842 12.973 34.938 12.957 A 2.105 2.105 0 0 0 34.994 12.948 Q 35.052 12.937 35.09 12.926 Z M 26.639 10.659 L 26.585 11.02 A 1.715 1.715 0 0 0 26.461 10.998 Q 26.4 10.989 26.345 10.986 A 0.913 0.913 0 0 0 26.304 10.985 A 0.674 0.674 0 0 0 25.805 11.2 A 0.922 0.922 0 0 0 25.77 11.238 A 0.888 0.888 0 0 0 25.556 11.737 A 1.181 1.181 0 0 0 25.549 11.869 L 25.549 13.247 L 25.16 13.247 L 25.16 10.678 L 25.481 10.678 L 25.525 11.154 L 25.544 11.154 A 1.314 1.314 0 0 1 25.691 10.944 A 1.004 1.004 0 0 1 25.889 10.767 A 0.776 0.776 0 0 1 26.332 10.631 A 1.786 1.786 0 0 1 26.492 10.638 A 1.304 1.304 0 0 1 26.639 10.659 Z M 27.508 10.678 L 27.508 13.247 L 27.119 13.247 L 27.119 10.678 L 27.508 10.678 Z M 29.414 13.188 L 28.947 13.188 A 0.894 0.894 0 0 0 28.786 13.202 Q 28.634 13.23 28.535 13.315 A 0.41 0.41 0 0 0 28.4 13.547 A 0.623 0.623 0 0 0 28.387 13.678 A 0.391 0.391 0 0 0 28.413 13.823 Q 28.454 13.928 28.563 13.995 Q 28.738 14.102 29.064 14.102 A 1.827 1.827 0 0 0 29.067 14.102 Q 29.557 14.102 29.792 13.956 A 0.568 0.568 0 0 0 29.924 13.846 A 0.425 0.425 0 0 0 30.028 13.559 A 0.526 0.526 0 0 0 30.018 13.454 Q 29.992 13.328 29.899 13.269 A 0.369 0.369 0 0 0 29.811 13.231 Q 29.718 13.202 29.571 13.193 A 2.476 2.476 0 0 0 29.414 13.188 Z M 28.598 11.501 A 0.759 0.759 0 0 0 28.614 11.66 Q 28.635 11.759 28.685 11.833 A 0.416 0.416 0 0 0 28.75 11.909 A 0.503 0.503 0 0 0 28.953 12.018 Q 29.051 12.047 29.175 12.047 A 0.848 0.848 0 0 0 29.397 12.02 Q 29.65 11.951 29.719 11.702 A 0.788 0.788 0 0 0 29.744 11.494 A 0.837 0.837 0 0 0 29.716 11.265 Q 29.642 11.008 29.381 10.94 A 0.846 0.846 0 0 0 29.168 10.915 Q 28.957 10.915 28.822 11.002 A 0.448 0.448 0 0 0 28.746 11.062 A 0.467 0.467 0 0 0 28.633 11.253 Q 28.598 11.36 28.598 11.501 Z M 27.152 9.786 A 0.182 0.182 0 0 0 27.112 9.843 Q 27.086 9.899 27.086 9.982 A 0.459 0.459 0 0 0 27.088 10.026 Q 27.092 10.065 27.103 10.097 A 0.201 0.201 0 0 0 27.152 10.178 A 0.218 0.218 0 0 0 27.231 10.228 A 0.247 0.247 0 0 0 27.316 10.242 A 0.227 0.227 0 0 0 27.478 10.178 A 0.19 0.19 0 0 0 27.515 10.129 Q 27.532 10.097 27.539 10.056 A 0.403 0.403 0 0 0 27.546 9.982 A 0.445 0.445 0 0 0 27.544 9.94 Q 27.534 9.84 27.478 9.787 A 0.229 0.229 0 0 0 27.316 9.724 A 0.297 0.297 0 0 0 27.296 9.725 A 0.225 0.225 0 0 0 27.152 9.786 Z" id="right_labelLayer" stroke="#777777" fill="#777777" style="stroke:#777777;fill:#777777" vector-effect="non-scaling-stroke"/><path d="M 42.486 24.361 L 42.486 25.625 L 42.25 25.625 L 42.25 26.995 L 42.51 26.995 L 42.51 27.125 L 42.51 27.255 L 42.25 27.255 L 42.25 28.625 L 42.486 28.625 L 42.486 31.625 L 42.25 31.625 L 42.25 32.995 L 42.51 32.995 L 42.51 33.125 L 42.51 33.255 L 42.25 33.255 L 42.25 34.625 L 42.486 34.625 L 42.486 37.625 L 42.25 37.625 L 42.25 38.995 L 42.51 38.995 L 42.51 39.125 L 42.51 39.255 L 42.25 39.255 L 42.25 40.625 L 42.486 40.625 L 42.486 43.625 L 42.25 43.625 L 42.25 44.995 L 42.51 44.995 L 42.51 45.125 L 42.51 45.255 L 42.25 45.255 L 42.25 46.625 L 42.486 46.625 L 42.486 47.889 L 43.375 47.889 L 43.375 48.125 L 44.37 48.125 L 44.37 47.865 L 44.5 47.865 L 44.63 47.865 L 44.63 48.125 L 45.625 48.125 L 45.625 47.889 L 47.875 47.889 L 47.875 48.125 L 48.87 48.125 L 48.87 47.865 L 49 47.865 L 49.13 47.865 L 49.13 48.125 L 50.125 48.125 L 50.125 47.889 L 52.375 47.889 L 52.375 48.125 L 53.37 48.125 L 53.37 47.865 L 53.5 47.865 L 53.63 47.865 L 53.63 48.125 L 54.625 48.125 L 54.625 47.889 L 56.875 47.889 L 56.875 48.125 L 57.87 48.125 L 57.87 47.865 L 58 47.865 L 58.13 47.865 L 58.13 48.125 L 59.125 48.125 L 59.125 47.889 L 60.014 47.889 L 60.014 46.625 L 60.25 46.625 L 60.25 45.255 L 59.99 45.255 L 59.99 45.125 L 59.99 44.995 L 60.25 44.995 L 60.25 43.625 L 60.014 43.625 L 60.014 40.625 L 60.25 40.625 L 60.25 39.255 L 59.99 39.255 L 59.99 39.125 L 59.99 38.995 L 60.25 38.995 L 60.25 37.625 L 60.014 37.625 L 60.014 34.625 L 60.25 34.625 L 60.25 33.255 L 59.99 33.255 L 59.99 33.125 L 59.99 32.995 L 60.25 32.995 L 60.25 31.625 L 60.014 31.625 L 60.014 28.625 L 60.25 28.625 L 60.25 27.255 L 59.99 27.255 L 59.99 27.125 L 59.99 26.995 L 60.25 26.995 L 60.25 25.625 L 60.014 25.625 L 60.014 24.361 L 59.125 24.361 L 59.125 24.125 L 58.13 24.125 L 58.13 24.385 L 58 24.385 L 57.87 24.385 L 57.87 24.125 L 56.875 24.125 L 56.875 24.361 L 54.625 24.361 L 54.625 24.125 L 53.63 24.125 L 53.63 24.385 L 53.5 24.385 L 53.37 24.385 L 53.37 24.125 L 52.375 24.125 L 52.375 24.361 L 50.125 24.361 L 50.125 24.125 L 49.13 24.125 L 49.13 24.385 L 49 24.385 L 48.87 24.385 L 48.87 24.125 L 47.875 24.125 L 47.875 24.361 L 45.625 24.361 L 45.625 24.125 L 44.63 24.125 L 44.63 24.385 L 44.5 24.385 L 44.37 24.385 L 44.37 24.125 L 43.375 24.125 L 43.375 24.361 L 42.486 24.361 Z" id="bottom_outsideCutPath" stroke="#FF0000" stroke-width="0.1" style="stroke:#FF0000;stroke-width:0.1" vector-effect="non-scaling-stroke"/><path d="M 57.172 37.475 L 56.88 37.475 L 56.88 36.222 A 0.861 0.861 0 0 0 56.872 36.095 Q 56.862 36.03 56.842 35.978 A 0.353 0.353 0 0 0 56.782 35.876 A 0.307 0.307 0 0 0 56.639 35.784 Q 56.588 35.768 56.526 35.763 A 0.677 0.677 0 0 0 56.476 35.761 A 0.751 0.751 0 0 0 56.323 35.776 Q 56.164 35.809 56.073 35.918 Q 55.944 36.073 55.943 36.396 A 1.601 1.601 0 0 0 55.943 36.399 L 55.943 37.475 L 55.652 37.475 L 55.652 36.222 A 0.861 0.861 0 0 0 55.643 36.095 Q 55.633 36.03 55.613 35.978 A 0.353 0.353 0 0 0 55.553 35.876 Q 55.468 35.777 55.3 35.763 A 0.683 0.683 0 0 0 55.245 35.761 A 0.725 0.725 0 0 0 55.096 35.776 Q 55.003 35.795 54.934 35.841 A 0.382 0.382 0 0 0 54.844 35.925 Q 54.728 36.074 54.718 36.396 A 2.032 2.032 0 0 0 54.716 36.464 L 54.716 37.475 L 54.425 37.475 L 54.425 35.548 L 54.662 35.548 L 54.709 35.812 L 54.723 35.812 Q 54.806 35.671 54.956 35.592 A 0.693 0.693 0 0 1 55.23 35.516 A 0.837 0.837 0 0 1 55.293 35.513 A 0.955 0.955 0 0 1 55.508 35.536 Q 55.781 35.599 55.884 35.84 L 55.898 35.84 A 0.609 0.609 0 0 1 56.127 35.612 A 0.732 0.732 0 0 1 56.147 35.601 A 0.739 0.739 0 0 1 56.418 35.519 A 0.921 0.921 0 0 1 56.52 35.513 Q 56.74 35.513 56.886 35.59 A 0.481 0.481 0 0 1 57.009 35.681 A 0.502 0.502 0 0 1 57.117 35.858 Q 57.172 36.004 57.172 36.218 L 57.172 37.475 Z M 45.62 37.227 L 45.599 37.227 L 45.537 37.475 L 45.328 37.475 L 45.328 34.74 L 45.62 34.74 L 45.62 35.404 A 6.084 6.084 0 0 1 45.616 35.61 Q 45.613 35.713 45.606 35.805 L 45.62 35.805 A 0.663 0.663 0 0 1 46.104 35.524 A 0.997 0.997 0 0 1 46.224 35.517 A 0.892 0.892 0 0 1 46.475 35.55 A 0.668 0.668 0 0 1 46.814 35.776 A 0.86 0.86 0 0 1 46.965 36.066 Q 47.024 36.258 47.024 36.51 A 1.711 1.711 0 0 1 47.002 36.798 Q 46.955 37.07 46.812 37.247 A 0.691 0.691 0 0 1 46.321 37.505 A 0.99 0.99 0 0 1 46.224 37.51 A 0.885 0.885 0 0 1 46.002 37.483 A 0.77 0.77 0 0 1 45.881 37.441 A 0.646 0.646 0 0 1 45.62 37.227 Z M 50.594 37.234 L 50.594 37.457 A 0.287 0.287 0 0 1 50.56 37.471 Q 50.518 37.485 50.455 37.495 Q 50.368 37.509 50.298 37.51 A 0.747 0.747 0 0 1 50.288 37.51 A 0.762 0.762 0 0 1 50.064 37.48 Q 49.817 37.404 49.752 37.136 A 0.917 0.917 0 0 1 49.729 36.921 L 49.729 35.775 L 49.454 35.775 L 49.454 35.635 L 49.729 35.513 L 49.853 35.102 L 50.021 35.102 L 50.021 35.548 L 50.58 35.548 L 50.58 35.775 L 50.021 35.775 L 50.021 36.909 Q 50.021 37.031 50.062 37.114 A 0.283 0.283 0 0 0 50.104 37.176 A 0.271 0.271 0 0 0 50.271 37.265 A 0.39 0.39 0 0 0 50.331 37.269 Q 50.408 37.269 50.48 37.258 A 1.578 1.578 0 0 0 50.522 37.251 Q 50.562 37.243 50.59 37.235 A 0.434 0.434 0 0 0 50.594 37.234 Z M 51.865 37.234 L 51.865 37.457 A 0.287 0.287 0 0 1 51.831 37.471 Q 51.789 37.485 51.725 37.495 Q 51.639 37.509 51.569 37.51 A 0.747 0.747 0 0 1 51.559 37.51 A 0.762 0.762 0 0 1 51.335 37.48 Q 51.088 37.404 51.023 37.136 A 0.917 0.917 0 0 1 51 36.921 L 51 35.775 L 50.724 35.775 L 50.724 35.635 L 51 35.513 L 51.123 35.102 L 51.292 35.102 L 51.292 35.548 L 51.851 35.548 L 51.851 35.775 L 51.292 35.775 L 51.292 36.909 Q 51.292 37.031 51.333 37.114 A 0.283 0.283 0 0 0 51.375 37.176 A 0.271 0.271 0 0 0 51.541 37.265 A 0.39 0.39 0 0 0 51.602 37.269 Q 51.679 37.269 51.751 37.258 A 1.578 1.578 0 0 0 51.793 37.251 Q 51.833 37.243 51.861 37.235 A 0.434 0.434 0 0 0 51.865 37.234 Z M 49.17 36.803 A 1.507 1.507 0 0 0 49.197 36.51 A 1.713 1.713 0 0 0 49.196 36.464 Q 49.185 36.037 48.959 35.782 A 0.764 0.764 0 0 0 48.604 35.553 A 0.981 0.981 0 0 0 48.316 35.513 A 1.133 1.133 0 0 0 48.113 35.531 A 0.772 0.772 0 0 0 47.662 35.776 A 0.806 0.806 0 0 0 47.563 35.913 Q 47.427 36.151 47.427 36.51 Q 47.427 36.814 47.536 37.041 A 0.959 0.959 0 0 0 47.557 37.082 A 0.79 0.79 0 0 0 47.845 37.389 A 0.812 0.812 0 0 0 48.032 37.472 A 0.937 0.937 0 0 0 48.304 37.51 Q 48.722 37.51 48.96 37.246 A 0.814 0.814 0 0 0 49.056 37.112 Q 49.136 36.977 49.17 36.803 Z M 53.886 36.803 A 1.507 1.507 0 0 0 53.913 36.51 A 1.713 1.713 0 0 0 53.912 36.464 Q 53.901 36.037 53.675 35.782 A 0.764 0.764 0 0 0 53.32 35.553 A 0.981 0.981 0 0 0 53.032 35.513 A 1.133 1.133 0 0 0 52.829 35.531 A 0.772 0.772 0 0 0 52.379 35.776 A 0.806 0.806 0 0 0 52.279 35.913 Q 52.143 36.151 52.143 36.51 Q 52.143 36.814 52.252 37.041 A 0.959 0.959 0 0 0 52.273 37.082 A 0.79 0.79 0 0 0 52.561 37.389 A 0.812 0.812 0 0 0 52.748 37.472 A 0.937 0.937 0 0 0 53.02 37.51 Q 53.438 37.51 53.676 37.246 A 0.814 0.814 0 0 0 53.773 37.112 Q 53.852 36.977 53.886 36.803 Z M 47.729 36.51 A 1.478 1.478 0 0 0 47.743 36.721 Q 47.775 36.939 47.877 37.072 A 0.478 0.478 0 0 0 48.188 37.256 A 0.725 0.725 0 0 0 48.311 37.266 A 0.678 0.678 0 0 0 48.49 37.244 A 0.472 0.472 0 0 0 48.746 37.073 A 0.626 0.626 0 0 0 48.844 36.883 Q 48.872 36.796 48.885 36.688 A 1.537 1.537 0 0 0 48.895 36.51 A 1.456 1.456 0 0 0 48.881 36.302 Q 48.849 36.084 48.746 35.952 Q 48.597 35.761 48.307 35.761 A 0.694 0.694 0 0 0 48.135 35.781 A 0.465 0.465 0 0 0 47.875 35.949 Q 47.77 36.085 47.741 36.316 A 1.542 1.542 0 0 0 47.729 36.51 Z M 52.445 36.51 A 1.478 1.478 0 0 0 52.459 36.721 Q 52.491 36.939 52.593 37.072 A 0.478 0.478 0 0 0 52.904 37.256 A 0.725 0.725 0 0 0 53.027 37.266 A 0.678 0.678 0 0 0 53.206 37.244 A 0.472 0.472 0 0 0 53.462 37.073 A 0.626 0.626 0 0 0 53.56 36.883 Q 53.588 36.796 53.601 36.688 A 1.537 1.537 0 0 0 53.611 36.51 A 1.456 1.456 0 0 0 53.597 36.302 Q 53.565 36.084 53.462 35.952 Q 53.314 35.761 53.024 35.761 A 0.694 0.694 0 0 0 52.851 35.781 A 0.465 0.465 0 0 0 52.591 35.949 Q 52.486 36.085 52.457 36.316 A 1.542 1.542 0 0 0 52.445 36.51 Z M 46.182 35.761 Q 45.883 35.761 45.752 35.932 A 0.5 0.5 0 0 0 45.679 36.07 Q 45.63 36.207 45.622 36.415 A 2.248 2.248 0 0 0 45.62 36.51 A 1.929 1.929 0 0 0 45.629 36.709 Q 45.65 36.911 45.717 37.033 A 0.44 0.44 0 0 0 45.755 37.091 Q 45.89 37.266 46.189 37.266 A 0.582 0.582 0 0 0 46.354 37.244 A 0.42 0.42 0 0 0 46.59 37.07 Q 46.684 36.93 46.711 36.702 A 1.672 1.672 0 0 0 46.722 36.506 A 1.724 1.724 0 0 0 46.711 36.31 Q 46.687 36.095 46.603 35.965 A 0.484 0.484 0 0 0 46.59 35.946 Q 46.458 35.761 46.182 35.761 Z" id="bottom_labelLayer" stroke="#777777" fill="#777777" style="stroke:#777777;fill:#777777" vector-effect="non-scaling-stroke"/></g></svg>